{"title":"Richard.The.Lionheart.2013.DVDRip.XVID.AC3.HQ.Hive-CM8","uid":8405533,"size":1411193759,"categoryP":"video","categoryS":"movies","magnet":"?xt=urn:btih:5d3bf10d5444bbb3aa6af60ae4b6b1f2c43692ce&amp;dn=Richard.The.Lionheart.2013.DVDRip.XVID.AC3.HQ.Hive-CM8&amp;tr=udp%3A%2F%2Ftracker.openbittorrent.com%3A80&amp;tr=udp%3A%2F%2Fopen.demonii.com%3A1337&amp;tr=udp%3A%2F%2Ftracker.coppersurfer.tk%3A6969&amp;tr=udp%3A%2F%2Fexodus.desync.com%3A6969","seeders":1,"leechers":0,"uploader":"xxxlavalxxx","files":-1,"time":1366798239,"description":"Richard.The.Lionheart.2013.DVDRip.XVID.AC3.HQ.Hive-CM8\n\n\n Source: DVD-R PAL\n\n Video.: 720x304 @bitrate 1400 2pass\n Audio.: English AC3 5.1 @448\n Sample: Yes, included\n\n\n IMDb..: http://www.imdb.com/title/tt2396200/\n\n\n ENCODE\n got this nice dvd, hasnt been done yet, \n movie is perhaps not for everyone, suggest you check trailer first.\n quality was ok, first 5 mins of the movie are historical and have a\n weird aspect, same as on dvd. brightness and colours moved around in\n the movie so left it untouched, only added sharpness and denoise.\n lowered bitrate to get a reasonable size.\n still got nice\n enjoy\n\n\n General\n Complete name                  : Richard.The.Lionheart.2013.DVDRip.XVID.AC3.HQ.Hive-CM8.avi\n Format                         : AVI\n Format/Info                    : Audio Video Interleave\n File size                      : 1.30 GiB\n Duration                       : 1h 39mn\n Overall bit rate               : 1 857 Kbps\n Writing application            : Nandub v1.0rc2\n Writing library                : Nandub build 1853/release\n\n Video\n ID                             : 0\n Format                         : MPEG-4 Visual\n Format profile                 : Advanced Simple@L5\n Format settings, BVOP          : 2\n Format settings, QPel          : Yes\n Format settings, GMC           : No warppoints\n Format settings, Matrix        : Default (H.263)\n Muxing mode                    : Packed bitstream\n Codec ID                       : XVID\n Codec ID/Hint                  : XviD\n Duration                       : 1h 39mn\n Bit rate                       : 1 400 Kbps\n Width                          : 720 pixels\n Height                         : 304 pixels\n Display aspect ratio           : 2.35:1\n Frame rate                     : 25.000 fps\n Color space                    : YUV\n Chroma subsampling             : 4:2:0\n Bit depth                      : 8 bits\n Scan type                      : Progressive\n Compression mode               : Lossy\n Bits/(Pixel*Frame)             : 0.256\n Stream size                    : 1 001 MiB (75%)\n Writing library                : XviD 1.2.1 (UTC 2008-12-04)\n\n Audio\n ID                             : 1\n Format                         : AC-3\n Format/Info                    : Audio Coding 3\n Mode extension                 : CM (complete main)\n Format settings, Endianness    : Big\n Codec ID                       : 2000\n Duration                       : 1h 39mn\n Bit rate mode                  : Constant\n Bit rate                       : 448 Kbps\n Channel(s)                     : 6 channels\n Channel positions              : Front: L C R, Side: L R, LFE\n Sampling rate                  : 48.0 KHz\n Bit depth                      : 16 bits\n Compression mode               : Lossy\n Stream size                    : 320 MiB (24%)\n Alignment                      : Split accross interleaves\n Interleave, duration           : 40 ms (1.00 video frame)\n Interleave, preload duration   : 500 ms\n\n\n PLOT\n King Henry II tests the loyalty and honor of his son Richard sending him\n to a secret castle known as the Knight's Martyr. There, the Prince must\n fight against adversaries representing the virtues of a knight.\n\n\n CAST\n Malcolm McDowell   ...    King Henry II\n Stewart Arnold     ...    Selector\n Veronica Calilli   ...    Celtic Goddess\n\n\n\n    &lt;a href=&quot;\thttp://www.shotpix.com/images/48109851365332861734.png&quot; rel=&quot;nofollow&quot; target=&quot;_NEW&quot;&gt;\thttp://www.shotpix.com/images/48109851365332861734.png&lt;/a&gt;\n    &lt;a href=&quot;\thttp://www.shotpix.com/images/19748007478500915692.png&quot; rel=&quot;nofollow&quot; target=&quot;_NEW&quot;&gt;\thttp://www.shotpix.com/images/19748007478500915692.png&lt;/a&gt;\n    &lt;a href=&quot;\thttp://www.shotpix.com/images/64477880837390842812.png&quot; rel=&quot;nofollow&quot; target=&quot;_NEW&quot;&gt;\thttp://www.shotpix.com/images/64477880837390842812.png&lt;/a&gt;\n    &lt;a href=&quot;\thttp://www.shotpix.com/images/36635893932904850824.png&quot; rel=&quot;nofollow&quot; target=&quot;_NEW&quot;&gt;\thttp://www.shotpix.com/images/36635893932904850824.png&lt;/a&gt;\n    &lt;a href=&quot;\thttp://www.shotpix.com/images/76864359433075846218.png&quot; rel=&quot;nofollow&quot; target=&quot;_NEW&quot;&gt;\thttp://www.shotpix.com/images/76864359433075846218.png&lt;/a&gt;","torrent":{"xt":"urn:btih:5d3bf10d5444bbb3aa6af60ae4b6b1f2c43692ce","amp;dn":"Richard.The.Lionheart.2013.DVDRip.XVID.AC3.HQ.Hive-CM8","amp;tr":["udp%3A%2F%2Ftracker.openbittorrent.com%3A80","udp%3A%2F%2Fopen.demonii.com%3A1337","udp%3A%2F%2Ftracker.coppersurfer.tk%3A6969","udp%3A%2F%2Fexodus.desync.com%3A6969"],"infoHash":"5d3bf10d5444bbb3aa6af60ae4b6b1f2c43692ce","infoHashBuffer":{"type":"Buffer","data":[93,59,241,13,84,68,187,179,170,106,246,10,228,182,177,242,196,54,146,206]},"announce":[],"urlList":[]}}